<?xml version="1.0" encoding="utf-8"?>
<!-- Generator: Adobe Illustrator 22.1.0, SVG Export Plug-In . SVG Version: 6.00 Build 0)  -->
<svg version="1.1" id="Layer_1" xmlns="http://www.w3.org/2000/svg" xmlns:xlink="http://www.w3.org/1999/xlink" x="0px" y="0px"
	 viewBox="0 0 288 276" style="enable-background:new 0 0 288 276;" xml:space="preserve">
<style type="text/css">
	.st0{clip-path:url(#SVGID_2_);fill:#F58220;}
</style>
<g>
	<defs>
		<path id="SVGID_1_" d="M20,168h248l-18.8,84.5c-3.1,13.7-15.2,23.5-29.3,23.5H68.1c-14.1,0-26.2-9.8-29.3-23.5L20,168z M248,92h20
			c11,0,20,9,20,20v30H0v-30c0-11,9-20,20-20h20.4L88.5,8.7c4.7-8.1,15.1-10.9,23.2-6.2c8.1,4.7,10.9,15.1,6.2,23.2L79.7,92h129.1
			l-38.3-66.3c-4.7-8.1-1.9-18.5,6.2-23.2c8.1-4.7,18.5-1.9,23.2,6.2L248,92z"/>
	</defs>
	<clipPath id="SVGID_2_">
		<use xlink:href="#SVGID_1_"  style="overflow:visible;"/>
	</clipPath>
	<rect x="-5" y="-4.8" class="st0" width="298" height="285.8"/>
</g>
</svg>
